<svg width="456.4" height="73.5" viewBox="0 0 456.4 73.5" xmlns="http://www.w3.org/2000/svg" xmlns:xlink="http://www.w3.org/1999/xlink" overflow="hidden"><defs></defs><g><g><path d="M47.2 48.4 54.7 0.1 64.9 0.1 64.9 73.5 58 73.5 58 24.8 50.5 73.5 47.2 73.5 43.9 73.5 36.5 24.8 36.5 73.5 29.5 73.5 29.5 0.1 39.7 0.1Z" fill="#E5526F"/><path d="M88.5 36.8C88.5 36.8 92 35.3 92.3 30.3L92.3 7.5C92.3 7.5 92.3 0.3 84.8 0L79.8 0 70.5 0.1 70.5 73.5 77.5 73.5 77.5 40.6 80.8 40.6C83.3 40.6 85.4 42.7 85.4 45.2L85.4 73.5 92.4 73.5 92.4 43.3C92.3 43.3 92.5 38.9 88.5 36.8M85 28.3C85 30.8 82.9 32.9 80.4 32.9L77.4 32.9 77.4 7.1 80.4 7.1C82.9 7.1 85 9.2 85 11.7L85 28.3Z" fill="#E5526F"/><rect x="9.2" y="0.1" width="7" height="73.4" fill="#E5526F"/><rect x="0" y="0.1" width="25.4" height="7" fill="#E5526F"/></g><g><path d="M108.7 20.3C109.3 20.4 110.4 20.4 112 20.4L137.1 20.4C138.6 20.4 139.6 20.4 140.1 20.3 140 20.6 140 21.3 140 22.5 140 23.8 140 24.7 140.1 25.1L136.8 25.1C136.9 24.6 136.9 23.7 136.9 22.3L111.8 22.3C111.8 22 111.8 22.7 111.8 24.4 111.8 25 111.8 25.3 111.9 25.5L108.6 25.5C108.8 25.2 108.8 24.3 108.7 22.7 108.8 21.6 108.8 20.8 108.7 20.3ZM123 5.2C125.3 5.4 126.5 5.5 126.5 5.6 126.5 5.7 126.5 5.9 126.4 6.2 126.1 6.7 126 7 126 7.2L126 8.3 135 8.3C137.8 8.3 139.4 8.2 139.8 8L139.8 10.4C139.2 10.3 137.5 10.3 135 10.3L126 10.3 126 12 132.2 12C134.3 12 135.8 12 136.5 11.9L136.5 14.3C135.9 14.1 134.5 14 132.5 14L131.4 14 118.5 14C115.2 14 113.1 14.1 112.3 14.3L112.3 11.9C112.9 12.1 114.8 12.1 118 12L123.4 12 123.4 10.3 114.5 10.3C111.5 10.2 109.8 10.3 109.2 10.4L109.2 8C109.5 8.2 111.3 8.3 114.6 8.3L123.3 8.3 123.3 7.3 123 5.2ZM113 23.5C113.3 23.6 114.5 23.7 116.6 23.8L132.1 23.8C133.9 23.8 135.1 23.7 135.7 23.5L135.7 25.7C135.2 25.5 134.1 25.4 132.2 25.4L130 25.4C130.1 25.5 130.3 25.6 130.6 25.7 132.4 26.5 134.5 27.8 137.1 29.4L135 31.1C134.2 30.3 133.4 29.7 132.8 29.4L125.6 29.5 125.6 31.4 130 31.4C132.4 31.4 133.9 31.4 134.4 31.3L134.4 33.4C133.8 33.2 132.4 33.1 130 33.1L125.7 33.1 125.7 34.8 132.1 34.8C135.5 34.9 137.7 34.8 138.8 34.5L138.8 36.9C137.7 36.8 135.5 36.8 132.3 36.8L115.8 36.8C112.3 36.8 110.3 36.8 110 36.9L110 34.5C110.7 34.7 112.7 34.8 116 34.8L123.3 34.8 123.3 33.1 118.9 33.1C116.6 33.1 115.1 33.1 114.3 33.2L114.3 31.3C115 31.4 116.6 31.4 118.9 31.4L123.3 31.4 123.3 29.5C118.9 29.5 115.4 29.7 112.8 30.2L112 28.1C113.8 28.2 116.2 27.3 119.3 25.3L116.4 25.3C114.6 25.3 113.5 25.4 113.1 25.6L113.1 23.5ZM113.7 14.6C114.2 14.7 115.5 14.7 117.7 14.7L131.3 14.7C133.2 14.7 134.6 14.7 135.5 14.6 135.3 15 135.3 15.8 135.4 17 135.4 18.1 135.4 18.9 135.5 19.5 135 19.4 133.7 19.4 131.5 19.4L117.9 19.4C115.8 19.4 114.4 19.4 113.7 19.5 113.8 19.1 113.8 18.3 113.8 16.9 113.8 15.7 113.8 15 113.7 14.6ZM116.3 16.4 116.3 17.8 131.5 17.8 132.6 17.8 132.6 16.4 116.3 16.4ZM122.8 25.4C122.9 25.4 121.4 26.2 118.4 27.9L130.6 27.8C129.5 27.2 128.4 26.6 127.4 26.3L128.4 25.5 122.8 25.5Z"/><path d="M145 13.9C147.2 15.5 148.8 16.7 149.9 17.6L147.8 19.5C146.7 18.4 145.2 17.1 143.4 15.5L145 13.9ZM147.6 22 150 23.8C148.5 29 147.5 33.1 146.9 36.3L144 34.5C145 32.3 146.2 28.1 147.6 22ZM146.2 6C147.6 7.2 148.9 8.4 150.1 9.7L147.9 11.4C146.8 10 145.6 8.8 144.3 7.7L146.2 6ZM151.1 18.4C152.4 18.6 153 18.7 153 18.8 153 18.9 152.9 19.2 152.7 19.6 152.6 19.8 152.5 19.9 152.4 20 152.1 20.8 151.8 21.8 151.6 22.9L149.4 22.6C150.4 21.2 151 19.7 151.1 18.4ZM153.8 5.1C155.6 5.7 156.4 6.1 156.4 6.2 156.4 6.3 156.3 6.4 156 6.6 155.5 7 155.2 7.3 155 7.6 154.2 8.9 153.3 10 152.4 10.8L155.2 10.7C155.7 10.1 156 9.5 156.3 8.9 157.9 9.6 158.7 10.1 158.7 10.1 158.7 10.2 158.6 10.3 158.4 10.4 157.9 10.7 157.6 11 157.3 11.4 157 11.7 156.7 12.1 156.2 12.6 155.1 13.8 154 14.9 153 15.9L156.3 15.8 155.7 13.9 157.2 13.5C157.5 14.1 158 15.4 158.9 17.7L157 18.1 156.9 17.1C155.3 17.3 153.4 17.6 151.1 17.9L150.3 15.7C151.1 16.1 152.6 14.9 154.7 12.1 153.9 12.3 152.7 12.6 151.1 12.9L150.3 11C151.9 9.6 153.1 7.6 153.8 5.1ZM152.7 23.3C153.2 23.4 154.6 23.4 157 23.4L168.5 23.4C170.3 23.4 171.5 23.4 171.8 23.3 171.7 23.8 171.7 24.6 171.7 25.8 171.7 27.4 171.7 28.4 171.8 29 171.2 28.8 170.1 28.7 168.6 28.7L155 28.7 154.7 30.2 167.9 30.2C170.7 30.3 172.5 30.2 173.4 30.1 173.1 33.7 172.3 35.8 171 36.5 170.1 37.1 167.6 37.4 163.5 37.6 163.5 37.5 163.5 37.4 163.4 37.3 163.1 36.1 162.7 35.2 162 34.5 165.1 35.1 167.4 35.2 168.9 34.6 169.6 34.5 170.1 33.6 170.3 32L156.2 32C154.6 32 153.3 32.1 152.2 32.3 152.4 31.8 152.6 30.8 152.8 29.1 153 28.1 153.1 27.3 153.1 26.7 153.8 26.8 155.1 26.8 156.8 26.8L169.4 26.8 169.4 25.3 157 25.3C154.8 25.3 153.3 25.4 152.7 25.6L152.7 23.3ZM153.7 18.8 155.1 18.8C155.3 19.5 155.5 20.6 155.8 22L154 22.3C154 21.1 153.9 20 153.7 18.8ZM157.7 18.4C158 19.3 158.3 20.4 158.7 21.7L156.9 22C156.7 20.6 156.5 19.5 156.2 18.7L157.7 18.4ZM163.7 4.6 164.3 7C166 7.1 167 7 167.4 6.9L167.4 9.3C166.9 9.2 165.9 9.2 164.2 9.2L161 9.2C159.4 9.2 158.6 9.2 158.4 9.3L158.4 6.9C158.6 7 159.4 7 160.9 7L161.9 7 161.3 4.9 163.7 4.6ZM166.5 16.8C166.4 17.1 166.4 17.7 166.4 18.7L166.4 20.2C166.4 21.2 166.4 22 166.5 22.4 166 22.3 165.2 22.3 164 22.3L161.9 22.3C160.8 22.3 160 22.3 159.4 22.4 159.5 22 159.5 21.3 159.5 20.3L159.5 18.8C159.5 17.8 159.5 17.1 159.4 16.7L161.6 16.7 164.2 16.7C164.7 16.8 165.4 16.8 166.5 16.8ZM159.5 10.3C160 10.4 161.2 10.4 163.1 10.4 164.7 10.5 165.7 10.5 166.3 10.4L166.3 12.3C164.8 12.3 163.7 12.3 163 12.3 162.2 12.3 161 12.3 159.5 12.3L159.5 10.3ZM159.5 13.5C160 13.6 161.2 13.6 163.1 13.6 164.7 13.7 165.7 13.7 166.3 13.6L166.3 15.5C165.7 15.4 164.6 15.4 163 15.4 161.2 15.4 160 15.4 159.5 15.5L159.5 13.5ZM161.3 18.5 161.3 20.7 164.5 20.7 164.5 18.5 161.3 18.5ZM170.2 5.1C171.9 5.7 172.7 6 172.7 6.1 172.7 6.2 172.6 6.3 172.4 6.5 172 6.9 171.8 7.2 171.6 7.6 171.3 8.2 171 8.8 170.6 9.4 170.2 10 169.9 10.6 169.5 11.1L171.9 11.1C172.5 10.3 173 9.3 173.6 8.2 175.1 9.1 175.8 9.6 175.8 9.7 175.7 9.8 175.4 10.1 175 10.5 174.7 10.7 174.5 10.9 174.3 11.1 173.9 11.5 173.2 12.3 172.2 13.5 171.5 14.5 170.9 15.3 170.4 15.9L173.9 15.8 173.1 13.9 174.9 13.6C175.4 14.7 175.8 16 176.3 17.6L174.6 18.2 174.2 17.1C172.7 17.3 170.6 17.6 168 18.1L167.4 16.2C168.2 16.3 169.5 15.2 171.1 13 169.8 13.2 168.7 13.4 167.6 13.7L166.9 11.5C168.1 10.8 169.2 8.8 170.2 5.1ZM168.1 18.6C169.3 18.8 169.9 18.9 169.9 19 169.9 19.1 169.8 19.4 169.6 19.8 169.5 20 169.4 20.1 169.3 20.2 169 20.9 168.8 21.7 168.6 22.6L166.9 22.5C167.7 21.1 168 19.8 168.1 18.6ZM170.6 18.8 172 18.8C172.2 19.5 172.4 20.6 172.6 22L170.9 22.3C170.9 21.1 170.8 20 170.6 18.8ZM174.6 18.4C175.1 19.5 175.5 20.7 175.8 22L174.1 22.3C173.8 20.9 173.5 19.7 173 18.7L174.6 18.4Z"/><path d="M188.8 12.7C189 12.9 189.3 13.1 189.8 13.4 191.4 14.4 192.1 15 191.9 15.1 189.5 17.1 188 18.7 187.5 19.7L187.5 31.3C187.5 32.6 187.5 34 187.6 35.5 187.6 36.2 187.6 36.7 187.6 37L184.4 37C184.6 35.4 184.7 33.5 184.7 31.3L184.7 22.6C183 24.5 181.8 25.9 181.1 26.8 180.6 25.9 179.9 25 179 24.3 182.5 20.9 185.8 17 188.8 12.7ZM187.4 5.2 189.9 7.4C187 10.7 184.1 13.7 181 16.4 180.4 15.5 179.8 14.7 179.1 14 182.8 10.7 185.6 7.8 187.4 5.2ZM211.5 16.7 211.5 19.9C210.3 19.7 208.4 19.6 205.8 19.6L204.7 19.6 204.7 34.1C205.1 35.9 203.5 36.8 199.8 37 199.5 35.8 199 34.7 198.3 33.7 200.7 33.9 201.9 33.6 201.8 32.9L201.8 19.6 198.3 19.6C195.4 19.6 193.4 19.7 192.3 19.9L192.3 16.7C194.6 16.9 196.6 17 198.3 17L205.6 17C208.1 16.9 210 16.8 211.5 16.7ZM209.1 7.6 209.1 10.6C208.7 10.6 207.7 10.6 206.1 10.5 204.8 10.5 204 10.5 203.7 10.5L200 10.5C197.3 10.5 195.4 10.5 194.2 10.6L194.2 7.6C196.2 7.8 198.1 7.9 199.9 7.9L203.6 7.9C206 7.7 207.8 7.6 209.1 7.6Z"/><path d="M222.4 4.6C224.3 5.3 225.3 5.8 225.3 6 225.2 6.1 224.7 6.5 223.9 7.2 224 7.4 225 8 226.9 9.1 228.9 10.4 230.4 11.3 231.2 11.9L228.8 14C228.2 13.3 227 12.2 225.3 11 224.3 10.2 223.4 9.4 222.7 8.8 222.2 9.7 220.9 11.5 219 14.1 219.5 14.3 220.7 14.3 222.7 14.2 225.9 14.3 227.7 14.2 228.1 14.1L228.1 16.6C227.6 16.5 226.6 16.5 224.9 16.5L223.8 16.5 223.8 20 225.9 20C227.6 20 228.8 20 229.5 19.9L229.5 22.3C228.8 22.2 227.6 22.2 225.9 22.2L223.8 22.2 223.8 31.3C224.1 31.3 224.5 31.3 225 31.2 227.4 30.7 229 30.4 229.8 30.2 229.5 30.8 229.4 31.6 229.4 32.4 229.4 32.6 229.4 32.7 229.4 32.8 225.7 33.3 221 34 215.4 35.2 215.3 34.5 215 33.6 214.6 32.6 215.6 32.6 217.9 32.3 221.4 31.8L221.4 22.2 219.9 22.2C217.8 22.2 216.3 22.2 215.5 22.3L215.5 19.9C216.1 20.1 217.5 20.1 219.7 20L221.5 20 221.5 16.4 220.8 16.4C219.4 16.4 218.5 16.4 218 16.5L218 15.3 216.8 17.1C216 16.2 215.2 15.7 214.6 15.6 218.4 11.5 221 7.9 222.4 4.6ZM218.5 24.2C218.6 24.7 218.9 25.6 219.5 27 220.1 28.5 220.4 29.5 220.6 30.2L218.2 30.8C217.9 29.1 217.3 27.1 216.3 24.7L218.5 24.2ZM226.7 23.5C228.5 24.1 229.3 24.4 229.3 24.6 229.3 24.7 229.2 24.9 228.9 25.2 228.6 25.4 228.4 25.6 228.3 25.8 227.9 26.7 227.4 28.2 226.6 30.2L224.4 29.8C225.2 28.4 226 26.3 226.7 23.5ZM232 6.7C233.7 9 235.1 11.2 236.2 13.2L233.7 14.4C232.9 12 231.6 9.8 230 7.9L232 6.7ZM236.8 4.9C239.1 5.1 240.3 5.3 240.3 5.6 240.3 5.7 240.2 5.8 240 6 239.6 6.6 239.4 7.3 239.4 7.9L239.4 15.4 241.6 15.4C243.9 15.4 245.2 15.4 245.6 15.3 245.4 15.9 245.3 17.3 245.3 19.5L245.3 35.4C245.7 36.1 244.1 36.8 240.5 37.5 240.4 36.9 240.1 36.1 239.5 35 239.2 34.6 239.1 34.4 239.1 34.3 241.6 34.4 242.8 34.2 242.8 33.7L242.8 29.4 240.2 29.4 233.5 29.4 233.5 31.3C233.5 34.5 233.5 36.5 233.6 37.1L230.6 37.1C230.9 36.5 231 34.5 231 31.3L231 20.2C231 17.9 230.9 16.3 230.7 15.4 231.4 15.5 232.6 15.5 234.3 15.5L236.9 15.5 236.9 8.5C237.1 6.9 237 5.7 236.8 4.9ZM233.6 17.8 233.6 21.4 242.9 21.4 242.9 17.8 233.6 17.8ZM233.6 23.6 233.6 27.1 242.9 27.1 242.9 23.6 233.6 23.6ZM244.3 6.4C246.5 7.5 247.5 8.1 247.2 8.2L246.9 8.3C246.3 8.7 245.8 9.1 245.7 9.5 245.6 9.6 245.5 9.8 245.4 10.1 244.7 11.5 243.7 12.9 242.6 14.4L240.2 13.6C242 11.6 243.3 9.2 244.3 6.4Z"/><path d="M250.8 7.6C251.4 7.8 252.4 7.9 253.6 7.9L260.1 7.9C260.9 7.9 261.9 7.8 263 7.6L263 10.6C261.7 10.4 260.7 10.3 260.1 10.3L258.3 10.3C257.7 12.1 257 14.3 256.1 16.7L260 16.7C260.8 16.7 261.7 16.6 262.6 16.4 262.4 17 262.3 17.8 262.3 18.8L262.3 29.6C262.3 30.8 262.4 31.6 262.6 32L259.5 32C259.8 31.4 259.9 30.7 259.8 29.6L255.8 29.6 255.8 31.4C255.8 32.7 255.8 33.5 255.9 33.8L253.3 33.8C253.4 33.3 253.4 32.6 253.4 31.4L253.4 21C252.6 22.4 251.8 23.5 251 24.3 250.7 23.4 250.3 22.5 249.6 21.5 252 19.4 253.9 15.6 255.4 10.3L253.5 10.3C252.2 10.3 251.3 10.4 250.7 10.6L250.7 7.6ZM259.8 18.8 255.8 18.8 255.8 27.4 259.8 27.4 259.8 18.8ZM264.3 7C264.7 7 265.4 7 266.5 7.1 267.4 7.2 268 7.2 268.3 7.2L276.9 7.2C278.7 7.1 280.2 7 281.5 6.9L281.5 9.7C280.9 9.6 279.7 9.6 278 9.6L277.7 9.6 277.7 19.3 278.1 19.3C279.8 19.3 281.2 19.2 282.5 19L282.5 21.8C282.1 21.8 281.3 21.8 280 21.7 279 21.7 278.3 21.7 278.1 21.7L277.7 21.7 277.7 31.3C277.7 31.6 277.7 32.4 277.7 33.7 277.8 35.2 277.8 36.1 277.8 36.5L274.6 36.5C274.7 35.9 274.7 34.1 274.7 31.2L274.7 21.9 270.3 21.9C270.3 28.7 268.1 33.6 263.7 36.4 263 35.7 261.9 35.1 260.5 34.7 265.6 32 268 27.7 267.8 21.7L267.2 21.7C266 21.7 264.8 21.8 263.5 22L263.5 19C265 19.2 266.2 19.3 267.2 19.3L267.9 19.3C268 17.5 268 14.3 268 9.6L267.7 9.6C266 9.6 264.8 9.6 264.1 9.7L264.1 7ZM270.8 9.6C270.8 10.6 270.7 13.1 270.7 17.1 270.6 18 270.6 18.8 270.6 19.3L274.9 19.3 274.9 9.6 270.8 9.6Z"/><path d="M298.5 17.7C301.1 17.8 302.4 18 302.4 18.3 302.5 18.5 302.4 18.7 302.3 19 302 19.4 301.8 19.7 301.7 20.1 301.5 20.9 301.4 21.9 301.4 22.9L305.3 22.9C307 22.9 308.4 22.8 309.6 22.6 309.3 24.4 309.2 27.4 309.2 31.9 309.1 32.7 309.5 33.2 310.4 33.3 311.8 33.5 312.9 33.4 313.7 33.2 314.2 33.1 314.5 32 314.7 30 315.8 30.8 316.9 31.3 318 31.5 317.4 33.8 316.7 35.1 315.8 35.5 313.5 36.1 310.8 36.1 307.8 35.5 306.6 35.1 306 34.3 306.1 33 306.1 29.9 306.2 27.3 306.5 25.2L301 25.2C300.3 30.7 296.1 34.4 288.4 36.1 287.8 35 287.1 34.1 286.2 33.5 293.3 32.8 297.4 30 298.4 25.2L295 25.2C293.2 25.2 291.4 25.3 289.6 25.5L289.6 22.6C291.3 22.8 293.1 22.9 295 22.9L298.6 22.9C298.8 20.7 298.8 19 298.5 17.7ZM303.3 5.3C303.7 6.9 304 8.3 304.4 9.5L312.9 9.5C313.7 9.5 314.8 9.4 316.2 9.2 316 9.9 315.9 10.8 315.9 11.8L315.9 12.6C315.9 13.7 316 14.6 316.2 15.2L312.5 15.2C312.7 14.6 312.8 13.7 312.8 12.7L312.8 12 291 12 291 12.7C291 13.7 291.1 14.6 291.3 15.3L287.8 15.3C288 14.7 288.1 13.8 288.1 12.8L288.1 12C288.1 11.1 288 10.2 287.8 9.2 289.1 9.4 290.2 9.5 291.1 9.5L301.4 9.5C301 8.2 300.5 7 299.9 5.8L303.3 5.3ZM297.1 13.4 300 15.6C298.6 16.7 295.5 18.6 290.6 21.3 290 20.2 289.2 19.4 288.1 18.9 291.6 17.3 294.6 15.5 297.1 13.4ZM305.8 13.8C308.9 15.2 312.1 16.9 315.2 19.1L313 21.6C310.7 19.8 307.6 17.9 303.9 16.1L305.8 13.8Z"/><path d="M334.9 5.1C335.5 5.3 336.1 5.5 337 5.7 338.2 6.1 338.7 6.3 338.5 6.4 338.5 6.5 338.4 6.7 338.1 7 337.5 7.7 336.9 8.6 336.3 9.6L349 9.6C351.3 9.6 352.7 9.6 353.3 9.5L353.3 12.4C352.7 12.3 351.3 12.3 349 12.3L334.9 12.3C334.4 13.1 333.7 14.4 332.5 16L344.3 16C345.6 16 346.9 16 348.2 15.9L348.6 15.9C348.5 16.9 348.5 18.1 348.5 19.5L348.5 34.7C348.8 35.9 347 36.8 343.1 37.3 343 36.1 342.7 35.1 342.1 34.4 342 34.3 342 34.2 342 34.1 344.6 34.3 345.8 33.9 345.6 32.9L345.6 30 331.7 30 331.7 32.5C331.7 34.6 331.8 36 332 36.5L332 36.6 328.8 36.6 328.8 36.5C328.9 35.9 328.9 34.6 328.9 32.5L328.9 21C329 21 328.3 21.8 326.7 23.4 325.4 24.8 324.5 25.8 323.9 26.3 323.1 25.7 322.2 25.1 321.3 24.6L321 24.5C325.8 21.2 329.4 17.1 331.9 12.2L326.5 12.2C324.4 12.2 322.8 12.2 321.7 12.3L321.7 9.3C322.5 9.5 324.1 9.6 326.5 9.6L333 9.6C333.8 8.1 334.4 6.6 334.9 5.1ZM331.7 18.4 331.7 21.9 345.6 21.9 345.6 18.4 331.7 18.4ZM331.7 24.2 331.7 27.7 345.6 27.7 345.6 24.2 331.7 24.2Z"/><path d="M369.7 6.6C369.5 7.1 369.1 8.3 368.5 10.2 366.7 15 365.9 17.5 365.9 17.8 365.9 17.9 366.1 18.1 366.5 18.5 368.3 20.8 369.3 22.9 369.4 24.9 369.3 27.8 367.6 29.5 364.1 30.2 364 29.2 363.5 28.1 362.4 26.9 365 27.3 366.4 26.7 366.6 25.1 366.9 23.5 366 21.5 363.8 19.1 363.3 18.5 363.1 18.2 363.1 18.1 363.1 17.9 363.3 17.5 363.7 16.7 364.8 14.4 365.7 11.9 366.5 9.4L361.9 9.4 361.9 30.3C361.9 30.9 361.9 31.9 362 33.5 362 34.8 362 35.6 362 36L359 36C359.2 34.5 359.3 32.6 359.3 30.3L359.3 10.7C359.3 8.4 359.3 7 359.2 6.5 360.1 6.6 361.8 6.7 364.3 6.8L365.5 6.8C366.7 6.9 368.1 6.8 369.7 6.6ZM385.8 6.9C385.6 7.3 385.5 8.1 385.5 9.5L385.5 18.4C385.5 19.7 385.6 20.6 385.8 21 385.8 20.9 384.8 20.9 382.9 20.9L378.9 20.9C379 22.3 379.4 23.9 380.1 25.7 382.2 24.1 383.7 22.8 384.5 21.7 384.7 21.8 385 22 385.3 22.3 386.8 23.1 387.4 23.7 387.2 24L387.1 24C386.5 24.1 385.7 24.5 384.9 25.1 383.6 26 382.4 26.9 381.3 27.9 383.2 30.2 385.8 31.8 389.1 32.6 387.9 33 386.7 33.9 385.6 35.4 380.2 32.3 377.2 27.5 376.5 21L373.7 21 373.7 31.9C375.2 31.2 376.6 30.3 378 29.3 378 30.4 378.1 31.4 378.3 32.3 375.3 33.6 373 35 371.2 36.5 370.6 35.3 370.1 34.4 369.5 33.9 370.3 33.5 370.8 32.8 371 31.7L371 9.7C371.1 8.8 371 7.9 370.7 7.1 371.5 7.4 372.5 7.5 373.6 7.5L382.7 7.5C384 7.3 385 7.1 385.8 6.9ZM373.7 9.5 373.7 13.1 382.8 13.1 382.8 9.5 373.7 9.5ZM373.7 15.2 373.7 18.5 382.8 18.5 382.8 15.2 373.7 15.2Z"/><path d="M401.8 6C404.5 6.7 405.9 7.2 406 7.5 406 7.7 405.8 7.9 405.4 8.1 404.9 8.5 404.6 8.9 404.3 9.3 401.3 14.8 398.1 19.6 394.6 23.4 393.3 22.6 392.2 22.1 391.1 21.9 396 18.2 399.5 12.9 401.8 6ZM406 17.2C408.6 18.2 409.9 18.8 410 19 410 19.1 409.9 19.2 409.6 19.4 409 19.9 408.5 20.5 408.1 21.2 405.2 25.9 402.7 29.6 400.5 32.3 402.2 32.1 405.3 31.9 409.5 31.7 411.7 31.6 413.3 31.5 414.4 31.4 413.8 29.9 412.6 28.2 411.1 26.1L413.9 24.6C415.9 27.4 418.2 30.9 420.8 35.1L417.2 36.6C417 36 416.6 35.2 416 34.1 416.1 34.2 416 34.1 415.9 33.7 406.2 34.1 399.9 34.6 396.9 35.4L395.9 32.4C399.3 30.3 402.7 25.2 406 17.2ZM413.5 5.9C415.5 12.7 419.5 17.7 425.6 20.7 424.4 21.3 423.2 22.1 422.1 23.2 416.5 18.8 412.6 13.2 410.5 6.6L413.5 5.9Z"/><path d="M429 13.4C430.4 13.6 432 13.7 434 13.7L445 13.7C447.5 13.7 449.5 13.6 451 13.4L451 16.3C449.2 16.1 447.2 16 445 16L433.8 16C431.5 16 429.9 16.1 429 16.3L429 13.4ZM431.7 6.9C432 6.9 432.4 6.9 432.9 7 434.4 7.2 436.1 7.3 438.2 7.3L450.5 7.3C452.5 7.3 454.5 7.2 456.3 6.9 456.3 7.2 456.2 7.8 456.2 8.7 456.1 10.5 456.1 11.9 456.1 13L456.1 33.4C456.7 34.9 454.6 35.9 450 36.6 449.9 35.4 449.5 34.3 448.8 33.3 452 33.4 453.5 33 453.1 32.1L453.1 9.8 438.3 9.8C435.8 9.8 433.6 9.9 431.8 10.1L431.8 6.9ZM432.9 19.2C433.2 19.2 433.6 19.2 434.3 19.3 435.6 19.4 436.7 19.4 437.6 19.4L444 19.4C445.5 19.4 446.9 19.3 448.3 19.1 448.2 19.1 448.2 19.1 448.4 19.1 448.1 20 448 21.3 448 23L448 26.3C448 28.3 448.1 29.9 448.4 30.9L444.9 30.9C444.9 30.8 444.9 30.7 445 30.5 445.1 29.9 445.1 29.5 445.1 29.1L436 29.1C436 30 436.1 31 436.3 32 436.3 31.9 436.3 32 436.3 32.1L432.8 32.1C433 30.5 433.1 28.9 433.1 27.1L433.1 23.2C433.1 21.6 433 20.2 432.9 19.2ZM436 21.7 436 27 445.1 27 445.1 21.7 436 21.7Z"/></g><g><path d="M112.9 53 112.9 51.3 125.1 51.3 125.1 53 120 53 120 66.4 118 66.4 118 53 112.9 53Z"/><path d="M128.2 58.7 126.5 58.7C126.6 56.2 128.1 55 131 55 133.6 55.1 135 56.2 135.1 58.1L135.1 64.5C135.1 64.9 135.3 65.2 135.8 65.2 135.9 65.2 135.9 65.2 136 65.2 136.2 65.1 136.3 65.1 136.4 65.1L136.4 66.4C136.3 66.4 136.2 66.4 136 66.4 135.7 66.5 135.5 66.5 135.3 66.5 134 66.5 133.3 66 133.4 64.9 132.3 66 130.9 66.6 129.3 66.6 127.1 66.5 125.9 65.5 125.8 63.5 125.9 61.5 127 60.4 129.2 60L132.3 59.7C133 59.6 133.3 59.1 133.3 58.4 133.3 57.2 132.4 56.6 130.7 56.6 129.1 56.5 128.3 57.2 128.2 58.7ZM133.3 62.6 133.3 60.8C132.9 61.1 131.8 61.3 130.2 61.5 128.7 61.6 127.9 62.2 127.9 63.2 127.9 64.5 128.5 65.1 129.8 65.1 131.9 64.9 133.1 64.1 133.3 62.6Z"/><path d="M142.3 53.3 140.4 53.3 140.4 51.2 142.3 51.2 142.3 53.3ZM142.3 55.3 142.3 66.4 140.4 66.4 140.4 55.3 142.3 55.3Z"/><path d="M153.3 57.8 151.2 66.4 149.2 66.4 146.1 55.3 148.1 55.3 150.2 64.1 150.3 64.1 152.5 55.3 154.6 55.3 156.8 64.1 156.9 64.1 159.1 55.3 161 55.3 157.8 66.4 155.9 66.4 153.3 57.8 153.3 57.8Z"/><path d="M166.1 58.7 164.4 58.7C164.5 56.2 166 55 168.9 55 171.5 55.1 172.9 56.2 172.9 58.1L172.9 64.5C172.9 64.9 173.1 65.2 173.6 65.2 173.7 65.2 173.7 65.2 173.8 65.2 174 65.1 174.1 65.1 174.2 65.1L174.2 66.4C174.1 66.4 174 66.4 173.8 66.4 173.5 66.5 173.3 66.5 173.1 66.5 171.8 66.5 171.1 66 171.2 64.9 170.1 66 168.7 66.6 167.1 66.6 164.9 66.5 163.7 65.5 163.6 63.5 163.7 61.5 164.8 60.4 167 60L170.1 59.7C170.8 59.6 171.1 59.1 171.1 58.4 171.1 57.2 170.2 56.6 168.5 56.6 167.1 56.5 166.2 57.2 166.1 58.7ZM171.2 62.6 171.2 60.8C170.8 61.1 169.7 61.3 168.1 61.5 166.6 61.6 165.8 62.2 165.8 63.2 165.8 64.5 166.4 65.1 167.7 65.1 169.9 64.9 171 64.1 171.2 62.6Z"/><path d="M187.3 58.8 187.3 66.3 185.5 66.3 185.5 59.5C185.6 57.5 184.8 56.5 183.1 56.6 181.2 56.7 180.3 57.9 180.2 60.2L180.2 66.2 178.3 66.2 178.3 55.3 180.1 55.3 180.1 56.9C181 55.6 182.1 55 183.5 55 185.9 55 187.2 56.3 187.3 58.8Z"/><path d="M222.9 66.4 220.9 66.4 220.9 57.5C220.9 56.7 220.9 55.4 220.9 53.7L216.6 66.4 214.5 66.4 210.3 53.7 210.2 53.7C210.2 54.3 210.2 55.2 210.3 56.4 210.3 57 210.3 57.4 210.3 57.5L210.3 66.4 208.2 66.4 208.2 51.2 211.2 51.2 215.6 64 219.9 51.2 222.9 51.2 222.9 66.4Z"/><path d="M229.5 58.7 227.8 58.7C227.9 56.2 229.4 55 232.3 55 234.9 55.1 236.3 56.2 236.4 58.1L236.4 64.5C236.4 64.9 236.6 65.2 237.1 65.2 237.2 65.2 237.2 65.2 237.3 65.2 237.5 65.1 237.6 65.1 237.7 65.1L237.7 66.4C237.6 66.4 237.5 66.4 237.3 66.4 237 66.5 236.8 66.5 236.6 66.5 235.3 66.5 234.6 66 234.7 64.9 233.6 66 232.2 66.6 230.6 66.6 228.4 66.5 227.2 65.5 227.1 63.5 227.2 61.5 228.3 60.4 230.5 60L233.6 59.7C234.3 59.6 234.6 59.1 234.6 58.4 234.6 57.2 233.7 56.6 232 56.6 230.4 56.5 229.6 57.2 229.5 58.7ZM234.5 62.6 234.5 60.8C234.1 61.1 233 61.3 231.4 61.5 229.9 61.6 229.1 62.2 229.1 63.2 229.1 64.5 229.7 65.1 231 65.1 233.2 64.9 234.3 64.1 234.5 62.6Z"/><path d="M243.7 59.9 243.7 66.3 241.8 66.3 241.8 55.3 243.6 55.3 243.6 57.2C244.4 55.7 245.5 55 246.7 55 246.8 55 246.9 55 247 55.1 247.1 55.1 247.1 55.1 247.2 55.1L247.2 57.1 246.5 57.1C244.8 57.1 243.8 58.1 243.7 59.9Z"/><path d="M255.4 59.4 259.9 66.3 257.5 66.3 254 60.7 252.5 62.2 252.5 66.3 250.7 66.3 250.7 51.2 252.5 51.2 252.5 60 257.3 55.3 259.6 55.3 255.4 59.4Z"/><path d="M270.9 62.9 272.7 62.9C272.5 64.2 271.8 65.2 270.7 66 270.1 66.4 269.1 66.6 267.7 66.6 264.6 66.5 262.9 64.7 262.7 61.2 262.8 57.2 264.6 55.1 268 55 271.1 55.1 272.7 57.2 272.8 61.5L264.7 61.5C264.7 63.9 265.8 65.1 267.9 65.1 269.6 65 270.6 64.3 270.9 62.9ZM264.8 60 271 60C270.8 57.8 269.8 56.7 267.9 56.7 266.1 56.8 265 58 264.8 60Z"/><path d="M281.3 56.8 279.5 56.8 279.5 64C279.5 64.6 279.9 64.9 280.6 64.9L281.3 64.9 281.3 66.3C281 66.3 280.6 66.3 280.1 66.3 280 66.3 279.9 66.3 279.9 66.3 278.3 66.3 277.5 65.6 277.6 64.1L277.6 56.7 276.2 56.7 276.2 55.1 277.6 55.1 277.6 52 279.5 52 279.5 55.1 281.3 55.1 281.3 56.8Z"/><path d="M287.2 53.3 285.3 53.3 285.3 51.2 287.2 51.2 287.2 53.3ZM287.2 55.3 287.2 66.4 285.3 66.4 285.3 55.3 287.2 55.3Z"/><path d="M300.9 58.8 300.9 66.3 299.1 66.3 299.1 59.5C299.2 57.5 298.4 56.5 296.7 56.6 294.8 56.7 293.9 57.9 293.8 60.2L293.8 66.2 291.9 66.2 291.9 55.3 293.7 55.3 293.7 56.9C294.6 55.6 295.7 55 297.1 55 299.6 55 300.9 56.3 300.9 58.8Z"/><path d="M315 55.3 315 65.5C315.1 69.1 313.4 70.9 310 70.9 307.4 70.9 306 69.8 305.7 67.6L307.6 67.6C307.8 68.8 308.6 69.4 310.1 69.4 312.3 69.4 313.4 68.2 313.2 65.7L313.2 65.2 313.2 65.3C312.5 66.2 311.5 66.6 310.2 66.6 307.1 66.5 305.5 64.5 305.3 60.6 305.5 57.1 307 55.2 309.9 55.1 311.3 55.1 312.4 55.7 313.2 57L313.2 55.4 315 55.4ZM307.3 60.8C307.4 63.6 308.3 65 310.3 65.1 312.2 64.9 313.2 63.7 313.3 61.4 313.4 58.3 312.4 56.7 310.3 56.7 308.2 56.7 307.2 58.1 307.3 60.8Z"/><path d="M338.2 59.8 338.2 66.3 336.1 66.3 336.1 51.2 343.1 51.2C346.5 51.2 348.1 52.6 348.1 55.3 348.1 57 347.4 58.2 346 58.9 347.2 59.2 347.8 60.2 347.8 61.8L348 64.5C347.9 65.3 348.2 65.8 348.7 66L348.7 66.3 346.1 66.3C345.9 65.6 345.8 64.3 345.8 62.5 345.9 60.7 344.9 59.8 343.1 59.8L338.2 59.8ZM338.2 52.9 338.2 58.1 343 58.1C345 58.1 346.1 57.2 346.1 55.5 346.1 53.8 345.2 52.9 343.4 52.9L338.2 52.9Z"/><path d="M360.5 62.9 362.3 62.9C362.1 64.2 361.4 65.2 360.3 66 359.7 66.4 358.7 66.6 357.3 66.6 354.2 66.5 352.5 64.7 352.3 61.2 352.4 57.2 354.2 55.1 357.6 55 360.7 55.1 362.3 57.2 362.4 61.5L354.3 61.5C354.3 63.9 355.4 65.1 357.5 65.1 359.2 65 360.2 64.3 360.5 62.9ZM354.4 60 360.6 60C360.4 57.8 359.4 56.7 357.5 56.7 355.7 56.8 354.6 58 354.4 60Z"/><path d="M374.9 58.5 373.1 58.5C373.1 57.2 372.2 56.6 370.5 56.6 369.1 56.7 368.4 57.2 368.3 58.2 368.2 58.9 368.9 59.4 370.3 59.7L372.2 60.1C374.3 60.6 375.3 61.6 375.3 63.1 375.2 65.3 373.8 66.5 371 66.6 367.9 66.6 366.3 65.4 366.2 62.9L367.9 62.9C368 64.4 369 65.2 371 65.2 372.6 65.1 373.4 64.5 373.5 63.4 373.6 62.7 372.9 62.2 371.3 61.8L369.1 61.3C367.4 60.9 366.5 60 366.5 58.7 366.6 56.4 368 55.2 370.7 55.1 373.3 55 374.7 56.2 374.9 58.5Z"/><path d="M387.1 62.9 388.9 62.9C388.7 64.2 388 65.2 386.9 66 386.3 66.4 385.3 66.6 383.9 66.6 380.8 66.5 379.1 64.7 378.9 61.2 379 57.2 380.8 55.1 384.2 55 387.3 55.1 388.9 57.2 389 61.5L381 61.5C381 63.9 382.1 65.1 384.2 65.1 385.7 65 386.7 64.3 387.1 62.9ZM381 60 387.2 60C387 57.8 386 56.7 384.1 56.7 382.2 56.8 381.2 58 381 60Z"/><path d="M395.1 58.7 393.4 58.7C393.5 56.2 395 55 397.9 55 400.5 55.1 401.9 56.2 402 58.1L402 64.5C402 64.9 402.2 65.2 402.7 65.2 402.8 65.2 402.8 65.2 402.9 65.2 403.1 65.1 403.2 65.1 403.3 65.1L403.3 66.4C403.2 66.4 403.1 66.4 402.9 66.4 402.6 66.5 402.4 66.5 402.2 66.5 400.9 66.5 400.2 66 400.3 64.9 399.2 66 397.8 66.6 396.2 66.6 394 66.5 392.8 65.5 392.7 63.5 392.8 61.5 393.9 60.4 396.1 60L399.2 59.7C399.9 59.6 400.2 59.1 400.2 58.4 400.2 57.2 399.3 56.6 397.6 56.6 396 56.5 395.2 57.2 395.1 58.7ZM400.1 62.6 400.1 60.8C399.7 61.1 398.6 61.3 397 61.5 395.5 61.6 394.7 62.2 394.7 63.2 394.7 64.5 395.3 65.1 396.6 65.1 398.8 64.9 400 64.1 400.1 62.6Z"/><path d="M409.4 59.9 409.4 66.3 407.5 66.3 407.5 55.3 409.3 55.3 409.3 57.2C410.1 55.7 411.2 55 412.4 55 412.5 55 412.6 55 412.7 55.1 412.8 55.1 412.8 55.1 412.9 55.1L412.9 57.1 412.2 57.1C410.4 57.1 409.5 58.1 409.4 59.9Z"/><path d="M424.6 59.1 422.8 59.1C422.6 57.5 421.8 56.7 420.2 56.7 418.2 56.8 417.2 58.2 417.1 60.8 417.1 63.7 418.1 65.1 420.2 65.1 421.7 65 422.6 64.1 422.8 62.5L424.6 62.5C424.2 65.1 422.7 66.5 420.1 66.6 416.9 66.5 415.3 64.7 415.1 61.2 415.2 57.2 417 55.1 420.4 55 422.9 55 424.3 56.4 424.6 59.1Z"/><path d="M437.6 58.8 437.6 66.3 435.8 66.3 435.8 59.1C435.9 57.4 435.1 56.6 433.6 56.6 431.6 56.7 430.6 57.9 430.5 60.2L430.5 66.2 428.6 66.2 428.6 51.2 430.5 51.2 430.5 56.7 430.6 56.7C431.5 55.5 432.6 54.9 433.8 54.9 436.3 55 437.5 56.3 437.6 58.8Z"/></g></g></svg>